<?xml version="1.0" encoding="utf-8"?><svg xmlns="http://www.w3.org/2000/svg" xmlns:xlink="http://www.w3.org/1999/xlink" width="1272" height="897" preserveAspectRatio="xMidYMid" viewBox="0 0 1272 897" style="z-index:1;display:block;background-color:rgb(221, 251, 255);animation-play-state:paused" ><g transform="translate(636,448.5) scale(1,1) translate(-636,-448.5)" style="transform:matrix(1, 0, 0, 1, 0, 0);animation-play-state:paused" ><path d="M -100 522.49 C -75.59 524.88 -76.24 529.49 -52.52 529.49 S -27.92 529.7 -5.03 529.7 S 19.65 527.23 42.45 527.23 S 67.07 527.34 89.94 527.34 S 113.76 540.58 137.42 540.58 S 162.63 538.45 184.9 538.45 S 209.76 534.76 232.39 534.76 S 257.44 540.61 279.87 540.61 S 304.41 535.79 327.35 535.79 S 353.24 531.88 374.84 531.88 S 399.03 538.51 422.32 538.51 S 446.61 538.39 469.81 538.39 S 495.03 534.3 517.29 534.3 S 542.76 521.27 564.77 521.27 S 588.81 534.88 612.26 534.88 S 636.62 529.07 659.74 529.07 S 684.76 540.05 707.23 540.05 S 732.65 532.96 754.71 532.96 S 779.9 523.23 802.19 523.23 S 826.04 533.46 849.68 533.46 S 874.1 534.87 897.16 534.87 S 922.01 521.54 944.65 521.54 S 970.54 537.48 992.13 537.48 S 1015.97 535.36 1039.61 535.36 S 1064.37 536.07 1087.1 536.07 S 1113.07 522.83 1134.58 522.83 S 1159.47 542 1182.06 542 S 1206.2 530.69 1229.55 530.69 S 1255.48 530.27 1277.03 530.27 S 1301.28 538.39 1324.52 538.39 S 1348.91 542.54 1372 542.54 S 1396.83 525.28 1419.48 525.28 L 1372 897 L -100 897 Z" fill="#15a0b1" stroke-width="0" transform="matrix(1,0,0,1,0,0)" style="transform:matrix(1, 0, 0, 1, 0, 0);animation-play-state:paused" ></path>
<path d="M -100 558.3 C -73.94 543.4 -74.12 563.2 -51.26 563.2 S -25.76 563.4 -2.52 563.4 S 22.65 549.23 46.23 549.23 S 70.97 560.61 94.97 560.61 S 120.54 548.24 143.71 548.24 S 168.2 549.41 192.45 549.41 S 218.78 550.26 241.19 550.26 S 267.43 555.25 289.93 555.25 S 315.26 564.98 338.68 564.98 S 363.92 562.26 387.42 562.26 S 412.52 556.64 436.16 556.64 S 461.53 558.38 484.9 558.38 S 510.97 551.17 533.64 551.17 S 559.78 559.08 582.38 559.08 S 607.68 568.31 631.13 568.31 S 657.53 558.24 679.87 558.24 S 704.98 549.67 728.61 549.67 S 754.38 549.31 777.35 549.31 S 802.13 550.84 826.09 550.84 S 851.83 545.2 874.83 545.2 S 899.55 547.72 923.58 547.72 S 948.78 549.67 972.32 549.67 S 998.18 549.23 1021.06 549.23 S 1046.72 547.02 1069.8 547.02 S 1094.64 553.09 1118.54 553.09 S 1143.82 546.15 1167.28 546.15 S 1193.82 559 1216.03 559 S 1241.49 563.13 1264.77 563.13 S 1289.98 552.17 1313.51 552.17 S 1338.92 552.89 1362.25 552.89 S 1388.58 558.04 1410.99 558.04 L 1372 897 L -100 897 Z" fill="#2ba9b8" stroke-width="0" transform="matrix(1,0,0,1,1.1340199708938599,0)" style="transform:matrix(1, 0, 0, 1, 1.13402, 0);animation-play-state:paused" ></path>
<path d="M -100 568.52 C -73.53 585.44 -73.49 580.89 -49.93 580.89 S -23.74 568.84 0.14 568.84 S 27.36 583.54 50.2 583.54 S 75.94 569.44 100.27 569.44 S 126.5 584.28 150.34 584.28 S 175.87 573.32 200.41 573.32 S 225.93 579.2 250.48 579.2 S 276.65 587.32 300.54 587.32 S 327.8 578.94 350.61 578.94 S 377.18 581.11 400.68 581.11 S 426.63 580.95 450.75 580.95 S 476.38 570.1 500.82 570.1 S 526.27 575.42 550.88 575.42 S 577.02 584.79 600.95 584.79 S 627.41 588.75 651.02 588.75 S 676.84 575.41 701.09 575.41 S 726.98 595.19 751.16 595.19 S 776.26 585.34 801.22 585.34 S 828.01 585.12 851.29 585.12 S 878.55 579.88 901.36 579.88 S 927.46 586.41 951.43 586.41 S 978.63 580.53 1001.5 580.53 S 1027.7 587.48 1051.56 587.48 S 1078.53 580.33 1101.63 580.33 S 1128.29 592.58 1151.7 592.58 S 1178.76 568 1201.77 568 S 1227.19 588.74 1251.84 588.74 S 1277.55 568.3 1301.9 568.3 S 1328.45 578.14 1351.97 578.14 S 1377.86 578.23 1402.04 578.23 L 1372 897 L -100 897 Z" fill="#3cb2c0" stroke-width="0" transform="matrix(1,0,0,1,3.5863146781921387,0)" style="transform:matrix(1, 0, 0, 1, 3.58631, 0);animation-play-state:paused" ></path>
<path d="M -100 591.59 C -73.14 600.96 -72.49 604.65 -48.53 604.65 S -22.21 602.06 2.94 602.06 S 28.9 601.07 54.41 601.07 S 81.32 594.04 105.87 594.04 S 133.3 614.01 157.34 614.01 S 184.59 594.05 208.81 594.05 S 235 616.69 260.28 616.69 S 287.28 607.97 311.75 607.97 S 339.64 612.69 363.22 612.69 S 389.18 594.03 414.69 594.03 S 441.05 617.57 466.15 617.57 S 492.74 609.11 517.62 609.11 S 544.24 612.79 569.09 612.79 S 595.57 590.97 620.56 590.97 S 648.26 605.83 672.03 605.83 S 697.8 589.94 723.5 589.94 S 750.02 608.44 774.97 608.44 S 802.54 588.72 826.43 588.72 S 854.13 606.03 877.9 606.03 S 904.88 602.91 929.37 602.91 S 955.51 615.81 980.84 615.81 S 1007.57 587.58 1032.31 587.58 S 1059.69 615.43 1083.78 615.43 S 1109.69 592.15 1135.24 592.15 S 1162.46 615.86 1186.71 615.86 S 1213.31 602.14 1238.18 602.14 S 1265.43 620.03 1289.65 620.03 S 1316.93 599.67 1341.12 599.67 S 1367.86 589.29 1392.59 589.29 L 1372 897 L -100 897 Z" fill="#4abcc8" stroke-width="0" transform="matrix(1,0,0,1,6.4136857986450195,0)" style="transform:matrix(1, 0, 0, 1, 6.41369, 0);animation-play-state:paused" ></path>
<path d="M -100 630.7 C -72.3 612.35 -73.32 631.23 -47.05 631.23 S -19.18 612.35 5.9 612.35 S 33.08 636.94 58.85 636.94 S 86.71 617.87 111.8 617.87 S 140.08 648.62 164.75 648.62 S 192.1 612.71 217.7 612.71 S 244.65 648.7 270.65 648.7 S 297.96 610.74 323.6 610.74 S 350.3 617.35 376.55 617.35 S 403.66 618.32 429.5 618.32 S 456.55 632.23 482.45 632.23 S 510.57 617.49 535.4 617.49 S 563.07 635.01 588.35 635.01 S 616.14 622.3 641.29 622.3 S 668.71 638.62 694.24 638.62 S 721.61 617.38 747.19 617.38 S 773.81 649.41 800.14 649.41 S 828.6 624.35 853.09 624.35 S 881.71 629.22 906.04 629.22 S 934.67 615.93 958.99 615.93 S 985.63 629.18 1011.94 629.18 S 1039.85 620.55 1064.89 620.55 S 1092.16 640.8 1117.84 640.8 S 1145.28 624.13 1170.79 624.13 S 1197.27 648.13 1223.74 648.13 S 1251.86 612.78 1276.69 612.78 S 1305.2 637.48 1329.64 637.48 S 1358.27 618.17 1382.59 618.17 L 1372 897 L -100 897 Z" fill="#57c5cf" stroke-width="0" transform="matrix(1,0,0,1,8.86598014831543,0)" style="transform:matrix(1, 0, 0, 1, 8.86598, 0);animation-play-state:paused" ></path>
<path d="M -100 635.53 C -72.34 637.51 -71.3 660.21 -45.48 660.21 S -17.81 665.76 9.04 665.76 S 37.77 659.18 63.56 659.18 S 91.42 641.01 118.07 641.01 S 145.39 655.61 172.59 655.61 S 200.98 637.67 227.11 637.67 S 256.42 672.84 281.63 672.84 S 311.11 656.47 336.15 656.47 S 364.17 670.89 390.67 670.89 S 418.72 651.45 445.19 651.45 S 474.32 673.66 499.7 673.66 S 528.56 647.54 554.22 647.54 S 582.11 662.27 608.74 662.27 S 638.13 650.95 663.26 650.95 S 691.44 664.35 717.78 664.35 S 746.89 649.86 772.3 649.86 S 800.13 674.61 826.81 674.61 S 856.01 635.52 881.33 635.52 S 909.4 674.2 935.85 674.2 S 965.3 632.67 990.37 632.67 S 1019.48 657.73 1044.89 657.73 S 1072.43 639.72 1099.41 639.72 S 1126.99 676.13 1153.93 676.13 S 1183.18 644.08 1208.44 644.08 S 1237.94 660.99 1262.96 660.99 S 1290.86 637.81 1317.48 637.81 S 1346.52 670.7 1372 670.7 S 1399.67 673.43 1426.52 673.43 L 1372 897 L -100 897 Z" fill="#63cfd7" stroke-width="0" transform="matrix(1,0,0,1,10,0)" style="transform:matrix(1, 0, 0, 1, 10, 0);animation-play-state:paused" ></path>
<path d="M -100 669.05 C -70.62 674.65 -71.01 700.03 -43.82 700.03 S -14.5 669.37 12.37 669.37 S 40.69 697.15 68.55 697.15 S 97.22 662.03 124.73 662.03 S 154.28 657.41 180.92 657.41 S 211.21 659.42 237.1 659.42 S 266.26 676.33 293.28 676.33 S 322.55 662.07 349.47 662.07 S 379.34 685.26 405.65 685.26 S 435.42 692.98 461.83 692.98 S 491.78 695.33 518.02 695.33 S 546.24 669.36 574.2 669.36 S 603.52 682.63 630.38 682.63 S 660.2 655.16 686.56 655.16 S 716.72 655.19 742.75 655.19 S 771.57 660.99 798.93 660.99 S 828.37 702.73 855.11 702.73 S 884.19 667.92 911.3 667.92 S 939.44 690.21 967.48 690.21 S 997.43 674.89 1023.66 674.89 S 1052.36 697.7 1079.85 697.7 S 1109.44 663.38 1136.03 663.38 S 1166.11 700.34 1192.21 700.34 S 1220.41 675.35 1248.4 675.35 S 1277.86 693.93 1304.58 693.93 S 1332.75 670.4 1360.76 670.4 S 1390.36 698.15 1416.95 698.15 L 1372 897 L -100 897 Z" fill="#6fd8df" stroke-width="0" transform="matrix(1,0,0,1,8.86598014831543,0)" style="transform:matrix(1, 0, 0, 1, 8.86598, 0);animation-play-state:paused" ></path>
<path d="M -100 686.71 C -70.88 681.43 -69.06 723.71 -42.05 723.71 S -11.56 695.73 15.91 695.73 S 45.43 709.39 73.86 709.39 S 103.33 685.92 131.81 685.92 S 161.62 710.66 189.76 710.66 S 220.54 696 247.72 696 S 277.35 712.53 305.67 712.53 S 336.55 719.37 363.62 719.37 S 394.37 727.78 421.57 727.78 S 451.02 679.02 479.53 679.02 S 508.62 719.14 537.48 719.14 S 568.56 689.67 595.43 689.67 S 626.58 720.34 653.39 720.34 S 683.54 689.78 711.34 689.78 S 741.9 717.36 769.29 717.36 S 798.76 689.48 827.24 689.48 S 856.54 719.63 885.2 719.63 S 916.35 696.88 943.15 696.88 S 974.2 722.16 1001.1 722.16 S 1031.28 681.7 1059.06 681.7 S 1088.53 717.86 1117.01 717.86 S 1147.55 685.35 1174.96 685.35 S 1205.95 679.87 1232.91 679.87 S 1262.18 692.13 1290.87 692.13 S 1321.56 718.12 1348.82 718.12 S 1378.78 684.6 1406.77 684.6 L 1372 897 L -100 897 Z" fill="#7be2e7" stroke-width="0" transform="matrix(1,0,0,1,6.4136857986450195,0)" style="transform:matrix(1, 0, 0, 1, 6.41369, 0);animation-play-state:paused" ></path>
<path d="M -100 700.75 C -68.16 721.41 -69.2 740.16 -40.16 740.16 S -10.23 712.99 19.67 712.99 S 49.99 736.84 79.51 736.84 S 110.1 703.38 139.35 703.38 S 170.22 754.39 199.19 754.39 S 230.51 720.86 259.02 720.86 S 288.98 745.08 318.86 745.08 S 349.81 716.59 378.7 716.59 S 410.82 736.32 438.54 736.32 S 470.36 716.54 498.37 716.54 S 529.08 755.73 558.21 755.73 S 588.78 751.29 618.05 751.29 S 649.2 757.48 677.89 757.48 S 709.58 756.88 737.72 756.88 S 768.85 745.78 797.56 745.78 S 829.02 718.32 857.4 718.32 S 889.41 750.07 917.24 750.07 S 947.73 701.63 977.07 701.63 S 1008.62 746.31 1036.91 746.31 S 1067.03 704.3 1096.75 704.3 S 1128.4 749.73 1156.59 749.73 S 1186.89 707.71 1216.42 707.71 S 1246.87 702.25 1276.26 702.25 S 1307.19 720.97 1336.1 720.97 S 1368.21 736.41 1395.93 736.41 L 1372 897 L -100 897 Z" fill="#87ecef" stroke-width="0" transform="matrix(1,0,0,1,3.5863142013549805,0)" style="transform:matrix(1, 0, 0, 1, 3.58631, 0);animation-play-state:paused" ></path>
<path d="M -100 774.37 C -68.95 774.3 -68.35 770.91 -38.15 770.91 S -5.29 726.9 23.7 726.9 S 54.66 774.01 85.55 774.01 S 116.9 728.9 147.39 728.9 S 180.39 766.57 209.24 766.57 S 241.86 729.54 271.09 729.54 S 303.07 779.92 332.94 779.92 S 364.76 735.76 394.79 735.76 S 427.22 773.55 456.64 773.55 S 487.64 722.12 518.49 722.12 S 551.17 772.01 580.34 772.01 S 611.5 740.44 642.18 740.44 S 673.75 782.49 704.03 782.49 S 735.66 736.94 765.88 736.94 S 798.22 777.47 827.73 777.47 S 860.64 722.54 889.58 722.54 S 922.39 767.44 951.43 767.44 S 984.23 737.92 1013.28 737.92 S 1046.25 780.48 1075.13 780.48 S 1106.28 722.8 1136.97 722.8 S 1169.15 772.23 1198.82 772.23 S 1229.98 726.53 1260.67 726.53 S 1292.76 734.12 1322.52 734.12 S 1354.68 735.79 1384.37 735.79 L 1372 897 L -100 897 Z" fill="#92f5f7" stroke-width="0" transform="matrix(1,0,0,1,1.1340198516845703,0)" style="transform:matrix(1, 0, 0, 1, 1.13402, 0);animation-play-state:paused" ></path></g></svg>