<?xml version="1.0" encoding="utf-8"?>
<svg xmlns="http://www.w3.org/2000/svg" xmlns:xlink="http://www.w3.org/1999/xlink" style="margin: auto; background: rgb(216, 246, 255); display: block; z-index: 1; position: relative; shape-rendering: auto;" width="2560" height="1283" preserveAspectRatio="xMidYMid" viewBox="0 0 2560 1283">
<g transform="translate(1280,641.5) scale(1,1) translate(-1280,-641.5)"><path d="M-100 752.4C-54.46 761.05 -54.85 753.33 -10.97 753.33S34.46 764.85 78.06 764.85S122.76 747.6 167.1 747.6S214.18 774.4 256.13 774.4S303.22 752.43 345.16 752.43S390.95 770.59 434.19 770.59S480.43 766.96 523.23 766.96S569.42 768.54 612.26 768.54S657.35 767.4 701.29 767.4S746.18 773.43 790.32 773.43S834.97 755.61 879.35 755.61S926.64 767.42 968.39 767.42S1015.1 763.33 1057.42 763.33S1104.46 760.02 1146.45 760.02S1191.42 760.51 1235.48 760.51S1282.59 768.59 1324.52 768.59S1370.57 774.19 1413.55 774.19S1458.87 748.42 1502.58 748.42S1549.72 774.79 1591.61 774.79S1636.68 744.45 1680.65 744.45S1725.19 759.55 1769.68 759.55S1815 759.29 1858.71 759.29S1906.1 752.59 1947.74 752.59S1992.6 754.8 2036.77 754.8S2083.9 751.55 2125.81 751.55S2171.09 745.97 2214.84 745.97S2261.29 761.73 2303.87 761.73S2349.19 762.53 2392.9 762.53S2439.07 770.57 2481.94 770.57S2529.37 771.98 2570.97 771.98S2617.9 760.97 2660 760.97S2706.2 750 2749.03 750L2660 1283 L-100 1283 Z" fill="#07a8ba" stroke-width="0">
  <animate attributeName="d" dur="16.39344262295082s" repeatCount="indefinite" values="M-100 752.4C-54.46 761.05 -54.85 753.33 -10.97 753.33S34.46 764.85 78.06 764.85S122.76 747.6 167.1 747.6S214.18 774.4 256.13 774.4S303.22 752.43 345.16 752.43S390.95 770.59 434.19 770.59S480.43 766.96 523.23 766.96S569.42 768.54 612.26 768.54S657.35 767.4 701.29 767.4S746.18 773.43 790.32 773.43S834.97 755.61 879.35 755.61S926.64 767.42 968.39 767.42S1015.1 763.33 1057.42 763.33S1104.46 760.02 1146.45 760.02S1191.42 760.51 1235.48 760.51S1282.59 768.59 1324.52 768.59S1370.57 774.19 1413.55 774.19S1458.87 748.42 1502.58 748.42S1549.72 774.79 1591.61 774.79S1636.68 744.45 1680.65 744.45S1725.19 759.55 1769.68 759.55S1815 759.29 1858.71 759.29S1906.1 752.59 1947.74 752.59S1992.6 754.8 2036.77 754.8S2083.9 751.55 2125.81 751.55S2171.09 745.97 2214.84 745.97S2261.29 761.73 2303.87 761.73S2349.19 762.53 2392.9 762.53S2439.07 770.57 2481.94 770.57S2529.37 771.98 2570.97 771.98S2617.9 760.97 2660 760.97S2706.2 750 2749.03 750L2660 1283 L-100 1283 Z;M-100 771.02C-54.27 769.06 -54.13 773.66 -10.97 773.66S35.93 770.56 78.06 770.56S124.21 768.26 167.1 768.26S213.49 775.84 256.13 775.84S300.92 752.55 345.16 752.55S392.1 756.91 434.19 756.91S481.03 762 523.23 762S570.62 763.21 612.26 763.21S657.94 769.64 701.29 769.64S748.57 773.83 790.32 773.83S836.97 773.95 879.35 773.95S925.01 760.19 968.39 760.19S1014.2 747.73 1057.42 747.73S1104.61 769.34 1146.45 769.34S1191.61 767.5 1235.48 767.5S1280.08 772.98 1324.52 772.98S1370.97 775.35 1413.55 775.35S1460.99 766.35 1502.58 766.35S1548.6 772.5 1591.61 772.5S1636.8 767.79 1680.65 767.79S1726.38 745.99 1769.68 745.99S1816.57 762.56 1858.71 762.56S1906.03 761.4 1947.74 761.4S1994.59 768.6 2036.77 768.6S2084.26 745.03 2125.81 745.03S2170.39 775.3 2214.84 775.3S2262.19 765.2 2303.87 765.2S2349.94 758.9 2392.9 758.9S2439.6 774.3 2481.94 774.3S2526.67 753.03 2570.97 753.03S2616.67 762.75 2660 762.75S2705.39 750.97 2749.03 750.97L2660 1283 L-100 1283 Z;M-100 752.4C-54.46 761.05 -54.85 753.33 -10.97 753.33S34.46 764.85 78.06 764.85S122.76 747.6 167.1 747.6S214.18 774.4 256.13 774.4S303.22 752.43 345.16 752.43S390.95 770.59 434.19 770.59S480.43 766.96 523.23 766.96S569.42 768.54 612.26 768.54S657.35 767.4 701.29 767.4S746.18 773.43 790.32 773.43S834.97 755.61 879.35 755.61S926.64 767.42 968.39 767.42S1015.1 763.33 1057.42 763.33S1104.46 760.02 1146.45 760.02S1191.42 760.51 1235.48 760.51S1282.59 768.59 1324.52 768.59S1370.57 774.19 1413.55 774.19S1458.87 748.42 1502.58 748.42S1549.72 774.79 1591.61 774.79S1636.68 744.45 1680.65 744.45S1725.19 759.55 1769.68 759.55S1815 759.29 1858.71 759.29S1906.1 752.59 1947.74 752.59S1992.6 754.8 2036.77 754.8S2083.9 751.55 2125.81 751.55S2171.09 745.97 2214.84 745.97S2261.29 761.73 2303.87 761.73S2349.19 762.53 2392.9 762.53S2439.07 770.57 2481.94 770.57S2529.37 771.98 2570.97 771.98S2617.9 760.97 2660 760.97S2706.2 750 2749.03 750L2660 1283 L-100 1283 Z"></animate>
  <animateTransform attributeName="transform" type="translate" dur="16.39344262295082s" begin="0s" repeatCount="indefinite" values="0;10;0" calcMode="spline" keySplines="0.3 0 0.7 1;0.3 0 0.7 1"></animateTransform>
</path><path d="M-100 797.84C-52.77 781.9 -52.95 794.77 -8.61 794.77S40.18 777.93 82.78 777.93S129.27 813.35 174.17 813.35S220.12 790.41 265.56 790.41S312.16 804.09 356.95 804.09S405.61 782.63 448.34 782.63S496.55 793.17 539.74 793.17S586.75 793.11 631.13 793.11S678.96 809.72 722.52 809.72S768.64 797.56 813.91 797.56S861.2 804.64 905.3 804.64S953.25 788.52 996.69 788.52S1045.02 804.49 1088.08 804.49S1135.06 785.66 1179.47 785.66S1227.46 807.33 1270.86 807.33S1316.97 783.52 1362.25 783.52S1410.26 812.45 1453.64 812.45S1500.99 805.8 1545.03 805.8S1592.76 792.11 1636.42 792.11S1685.05 787.48 1727.81 787.48S1775.59 787.14 1819.21 787.14S1866.74 796.1 1910.6 796.1S1958.65 802.07 2001.99 802.07S2049.55 787.44 2093.38 787.44S2141.19 791.29 2184.77 791.29S2232.82 806.63 2276.16 806.63S2324.82 792.14 2367.55 792.14S2414.68 788.34 2458.94 788.34S2505.68 803.09 2550.33 803.09S2599.07 785.11 2641.72 785.11S2690.33 784.5 2733.11 784.5L2660 1283 L-100 1283 Z" fill="#29b0c0" stroke-width="0">
  <animate attributeName="d" dur="14.754098360655737s" repeatCount="indefinite" values="M-100 797.84C-52.77 781.9 -52.95 794.77 -8.61 794.77S40.18 777.93 82.78 777.93S129.27 813.35 174.17 813.35S220.12 790.41 265.56 790.41S312.16 804.09 356.95 804.09S405.61 782.63 448.34 782.63S496.55 793.17 539.74 793.17S586.75 793.11 631.13 793.11S678.96 809.72 722.52 809.72S768.64 797.56 813.91 797.56S861.2 804.64 905.3 804.64S953.25 788.52 996.69 788.52S1045.02 804.49 1088.08 804.49S1135.06 785.66 1179.47 785.66S1227.46 807.33 1270.86 807.33S1316.97 783.52 1362.25 783.52S1410.26 812.45 1453.64 812.45S1500.99 805.8 1545.03 805.8S1592.76 792.11 1636.42 792.11S1685.05 787.48 1727.81 787.48S1775.59 787.14 1819.21 787.14S1866.74 796.1 1910.6 796.1S1958.65 802.07 2001.99 802.07S2049.55 787.44 2093.38 787.44S2141.19 791.29 2184.77 791.29S2232.82 806.63 2276.16 806.63S2324.82 792.14 2367.55 792.14S2414.68 788.34 2458.94 788.34S2505.68 803.09 2550.33 803.09S2599.07 785.11 2641.72 785.11S2690.33 784.5 2733.11 784.5L2660 1283 L-100 1283 Z;M-100 805.41C-54.27 806.39 -51.82 789.05 -8.61 789.05S37.93 806.71 82.78 806.71S129.42 779.71 174.17 779.71S221.69 791.59 265.56 791.59S311.64 813.25 356.95 813.25S402.89 782.79 448.34 782.79S496.34 798.24 539.74 798.24S587.76 788.4 631.13 788.4S677.76 789.62 722.52 789.62S768.79 807.15 813.91 807.15S860.99 801.96 905.3 801.96S952.54 791.89 996.69 791.89S1044.13 778.84 1088.08 778.84S1134.14 777.19 1179.47 777.19S1226.51 813.81 1270.86 813.81S1319.12 802.75 1362.25 802.75S1408.41 789.31 1453.64 789.31S1499.52 799.86 1545.03 799.86S1592.66 794.36 1636.42 794.36S1682.98 778.11 1727.81 778.11S1775.45 787.43 1819.21 787.43S1865.71 795.61 1910.6 795.61S1959.31 779.36 2001.99 779.36S2048.82 784.2 2093.38 784.2S2141.71 789.37 2184.77 789.37S2232.7 792.6 2276.16 792.6S2325.02 782.98 2367.55 782.98S2415.31 784.11 2458.94 784.11S2505.7 797.07 2550.33 797.07S2596.65 791.45 2641.72 791.45S2687.82 783.6 2733.11 783.6L2660 1283 L-100 1283 Z;M-100 797.84C-52.77 781.9 -52.95 794.77 -8.61 794.77S40.18 777.93 82.78 777.93S129.27 813.35 174.17 813.35S220.12 790.41 265.56 790.41S312.16 804.09 356.95 804.09S405.61 782.63 448.34 782.63S496.55 793.17 539.74 793.17S586.75 793.11 631.13 793.11S678.96 809.72 722.52 809.72S768.64 797.56 813.91 797.56S861.2 804.64 905.3 804.64S953.25 788.52 996.69 788.52S1045.02 804.49 1088.08 804.49S1135.06 785.66 1179.47 785.66S1227.46 807.33 1270.86 807.33S1316.97 783.52 1362.25 783.52S1410.26 812.45 1453.64 812.45S1500.99 805.8 1545.03 805.8S1592.76 792.11 1636.42 792.11S1685.05 787.48 1727.81 787.48S1775.59 787.14 1819.21 787.14S1866.74 796.1 1910.6 796.1S1958.65 802.07 2001.99 802.07S2049.55 787.44 2093.38 787.44S2141.19 791.29 2184.77 791.29S2232.82 806.63 2276.16 806.63S2324.82 792.14 2367.55 792.14S2414.68 788.34 2458.94 788.34S2505.68 803.09 2550.33 803.09S2599.07 785.11 2641.72 785.11S2690.33 784.5 2733.11 784.5L2660 1283 L-100 1283 Z"></animate>
  <animateTransform attributeName="transform" type="translate" dur="14.754098360655737s" begin="-1.4754098360655736s" repeatCount="indefinite" values="0;10;0" calcMode="spline" keySplines="0.3 0 0.7 1;0.3 0 0.7 1"></animateTransform>
</path><path d="M-100 824.56C-49.89 836.22 -49.92 839.69 -6.12 839.69S43.54 808.43 87.76 808.43S136.5 825.11 181.63 825.11S230.92 820.08 275.51 820.08S323.13 826.25 369.39 826.25S418.9 816.09 463.27 816.09S511.34 835.57 557.14 835.57S604.37 811.12 651.02 811.12S699.97 849.03 744.9 849.03S794.2 830.29 838.78 830.29S888.53 848.23 932.65 848.23S981.03 834.97 1026.53 834.97S1075.38 836.25 1120.41 836.25S1169.19 839.96 1214.29 839.96S1263.57 846.71 1308.16 846.71S1355.75 829.54 1402.04 829.54S1451.4 823.31 1495.92 823.31S1545.23 828.38 1589.8 828.38S1637.56 843.9 1683.67 843.9S1731.74 819.7 1777.55 819.7S1825.96 817.95 1871.43 817.95S1919.23 836.42 1965.31 836.42S2015.05 836.2 2059.18 836.2S2106.82 843.8 2153.06 843.8S2202.24 834.56 2246.94 834.56S2294.61 832.23 2340.82 832.23S2388.91 822.72 2434.69 822.72S2482.69 819.52 2528.57 819.52S2578.61 851.47 2622.45 851.47S2670.7 818.82 2716.33 818.82L2660 1283 L-100 1283 Z" fill="#3cb9c7" stroke-width="0">
  <animate attributeName="d" dur="13.114754098360656s" repeatCount="indefinite" values="M-100 824.56C-49.89 836.22 -49.92 839.69 -6.12 839.69S43.54 808.43 87.76 808.43S136.5 825.11 181.63 825.11S230.92 820.08 275.51 820.08S323.13 826.25 369.39 826.25S418.9 816.09 463.27 816.09S511.34 835.57 557.14 835.57S604.37 811.12 651.02 811.12S699.97 849.03 744.9 849.03S794.2 830.29 838.78 830.29S888.53 848.23 932.65 848.23S981.03 834.97 1026.53 834.97S1075.38 836.25 1120.41 836.25S1169.19 839.96 1214.29 839.96S1263.57 846.71 1308.16 846.71S1355.75 829.54 1402.04 829.54S1451.4 823.31 1495.92 823.31S1545.23 828.38 1589.8 828.38S1637.56 843.9 1683.67 843.9S1731.74 819.7 1777.55 819.7S1825.96 817.95 1871.43 817.95S1919.23 836.42 1965.31 836.42S2015.05 836.2 2059.18 836.2S2106.82 843.8 2153.06 843.8S2202.24 834.56 2246.94 834.56S2294.61 832.23 2340.82 832.23S2388.91 822.72 2434.69 822.72S2482.69 819.52 2528.57 819.52S2578.61 851.47 2622.45 851.47S2670.7 818.82 2716.33 818.82L2660 1283 L-100 1283 Z;M-100 828.65C-51.65 825.98 -52.41 850.46 -6.12 850.46S41.09 837.04 87.76 837.04S136.26 838.24 181.63 838.24S231.22 822.08 275.51 822.08S322.93 825.28 369.39 825.28S418.75 815.26 463.27 815.26S511.43 852.44 557.14 852.44S606.91 834.43 651.02 834.43S699.03 843.38 744.9 843.38S792.14 831.86 838.78 831.86S888.85 834.59 932.65 834.59S981.49 814.32 1026.53 814.32S1073.7 841.29 1120.41 841.29S1168.99 826.62 1214.29 826.62S1261.68 832.09 1308.16 832.09S1355.39 828.95 1402.04 828.95S1451.39 833.01 1495.92 833.01S1542.92 827.91 1589.8 827.91S1639.73 821.23 1683.67 821.23S1731.84 817.98 1777.55 817.98S1824.64 827.16 1871.43 827.16S1919.04 836.32 1965.31 836.32S2014.12 813.07 2059.18 813.07S2107.28 820.15 2153.06 820.15S2200.72 827.12 2246.94 827.12S2295.77 837.32 2340.82 837.32S2388.03 835.13 2434.69 835.13S2484.53 815.28 2528.57 815.28S2577.68 847.8 2622.45 847.8S2671.06 817.79 2716.33 817.79L2660 1283 L-100 1283 Z;M-100 824.56C-49.89 836.22 -49.92 839.69 -6.12 839.69S43.54 808.43 87.76 808.43S136.5 825.11 181.63 825.11S230.92 820.08 275.51 820.08S323.13 826.25 369.39 826.25S418.9 816.09 463.27 816.09S511.34 835.57 557.14 835.57S604.37 811.12 651.02 811.12S699.97 849.03 744.9 849.03S794.2 830.29 838.78 830.29S888.53 848.23 932.65 848.23S981.03 834.97 1026.53 834.97S1075.38 836.25 1120.41 836.25S1169.19 839.96 1214.29 839.96S1263.57 846.71 1308.16 846.71S1355.75 829.54 1402.04 829.54S1451.4 823.31 1495.92 823.31S1545.23 828.38 1589.8 828.38S1637.56 843.9 1683.67 843.9S1731.74 819.7 1777.55 819.7S1825.96 817.95 1871.43 817.95S1919.23 836.42 1965.31 836.42S2015.05 836.2 2059.18 836.2S2106.82 843.8 2153.06 843.8S2202.24 834.56 2246.94 834.56S2294.61 832.23 2340.82 832.23S2388.91 822.72 2434.69 822.72S2482.69 819.52 2528.57 819.52S2578.61 851.47 2622.45 851.47S2670.7 818.82 2716.33 818.82L2660 1283 L-100 1283 Z"></animate>
  <animateTransform attributeName="transform" type="translate" dur="13.114754098360656s" begin="-2.6229508196721314s" repeatCount="indefinite" values="0;10;0" calcMode="spline" keySplines="0.3 0 0.7 1;0.3 0 0.7 1"></animateTransform>
</path><path d="M-100 867.52C-51.52 850.85 -49.17 864.3 -3.5 864.3S45.89 872.41 93.01 872.41S143.94 888.66 189.51 888.66S240.18 854.95 286.01 854.95S336.35 877.83 382.52 877.83S432.96 861.2 479.02 861.2S527.95 872.03 575.52 872.03S624.09 841.78 672.03 841.78S721.2 884.72 768.53 884.72S819.95 861.49 865.03 861.49S913.85 868.96 961.54 868.96S1010.68 864.52 1058.04 864.52S1107.41 875.21 1154.55 875.21S1205.46 843.88 1251.05 843.88S1301.4 882.11 1347.55 882.11S1398.28 867.57 1444.06 867.57S1494.69 886.09 1540.56 886.09S1589.29 875.04 1637.06 875.04S1687.81 879.12 1733.57 879.12S1784.89 854.64 1830.07 854.64S1880.53 854.74 1926.57 854.74S1976.51 842.5 2023.08 842.5S2072.37 856.76 2119.58 856.76S2168.94 854.37 2216.08 854.37S2265.63 842.56 2312.59 842.56S2361.69 848.55 2409.09 848.55S2460.12 867.97 2505.59 867.97S2556.93 856.3 2602.1 856.3S2652.4 880 2698.6 880L2660 1283 L-100 1283 Z" fill="#4cc2ce" stroke-width="0">
  <animate attributeName="d" dur="11.475409836065573s" repeatCount="indefinite" values="M-100 867.52C-51.52 850.85 -49.17 864.3 -3.5 864.3S45.89 872.41 93.01 872.41S143.94 888.66 189.51 888.66S240.18 854.95 286.01 854.95S336.35 877.83 382.52 877.83S432.96 861.2 479.02 861.2S527.95 872.03 575.52 872.03S624.09 841.78 672.03 841.78S721.2 884.72 768.53 884.72S819.95 861.49 865.03 861.49S913.85 868.96 961.54 868.96S1010.68 864.52 1058.04 864.52S1107.41 875.21 1154.55 875.21S1205.46 843.88 1251.05 843.88S1301.4 882.11 1347.55 882.11S1398.28 867.57 1444.06 867.57S1494.69 886.09 1540.56 886.09S1589.29 875.04 1637.06 875.04S1687.81 879.12 1733.57 879.12S1784.89 854.64 1830.07 854.64S1880.53 854.74 1926.57 854.74S1976.51 842.5 2023.08 842.5S2072.37 856.76 2119.58 856.76S2168.94 854.37 2216.08 854.37S2265.63 842.56 2312.59 842.56S2361.69 848.55 2409.09 848.55S2460.12 867.97 2505.59 867.97S2556.93 856.3 2602.1 856.3S2652.4 880 2698.6 880L2660 1283 L-100 1283 Z;M-100 850.68C-49.59 844.84 -49.92 861.62 -3.5 861.62S46.97 843.75 93.01 843.75S143.18 878.22 189.51 878.22S239.2 850.4 286.01 850.4S335.26 884.98 382.52 884.98S433.36 871.08 479.02 871.08S528.12 868.33 575.52 868.33S624.54 841.17 672.03 841.17S721.3 878.52 768.53 878.52S817.52 858.96 865.03 858.96S914.85 868.59 961.54 868.59S1012.97 847.49 1058.04 847.49S1107.87 855.66 1154.55 855.66S1205.54 846.09 1251.05 846.09S1301.05 864.34 1347.55 864.34S1398.09 851.4 1444.06 851.4S1495.1 886.15 1540.56 886.15S1591.96 856.31 1637.06 856.31S1687.59 842.27 1733.57 842.27S1784.55 860.08 1830.07 860.08S1879.65 871.26 1926.57 871.26S1977.23 868.1 2023.08 868.1S2071.52 878.14 2119.58 878.14S2170.5 871.28 2216.08 871.28S2264.7 860.13 2312.59 860.13S2363.78 840.99 2409.09 840.99S2458.25 881.8 2505.59 881.8S2554.12 862.73 2602.1 862.73S2652.84 880.5 2698.6 880.5L2660 1283 L-100 1283 Z;M-100 867.52C-51.52 850.85 -49.17 864.3 -3.5 864.3S45.89 872.41 93.01 872.41S143.94 888.66 189.51 888.66S240.18 854.95 286.01 854.95S336.35 877.83 382.52 877.83S432.96 861.2 479.02 861.2S527.95 872.03 575.52 872.03S624.09 841.78 672.03 841.78S721.2 884.72 768.53 884.72S819.95 861.49 865.03 861.49S913.85 868.96 961.54 868.96S1010.68 864.52 1058.04 864.52S1107.41 875.21 1154.55 875.21S1205.46 843.88 1251.05 843.88S1301.4 882.11 1347.55 882.11S1398.28 867.57 1444.06 867.57S1494.69 886.09 1540.56 886.09S1589.29 875.04 1637.06 875.04S1687.81 879.12 1733.57 879.12S1784.89 854.64 1830.07 854.64S1880.53 854.74 1926.57 854.74S1976.51 842.5 2023.08 842.5S2072.37 856.76 2119.58 856.76S2168.94 854.37 2216.08 854.37S2265.63 842.56 2312.59 842.56S2361.69 848.55 2409.09 848.55S2460.12 867.97 2505.59 867.97S2556.93 856.3 2602.1 856.3S2652.4 880 2698.6 880L2660 1283 L-100 1283 Z"></animate>
  <animateTransform attributeName="transform" type="translate" dur="11.475409836065573s" begin="-3.442622950819672s" repeatCount="indefinite" values="0;10;0" calcMode="spline" keySplines="0.3 0 0.7 1;0.3 0 0.7 1"></animateTransform>
</path><path d="M-100 916.83C-48.72 928.32 -47.93 900.39 -0.72 900.39S49.11 893.82 98.56 893.82S149.39 873.02 197.84 873.02S250.02 901.9 297.12 901.9S347.94 921.42 396.4 921.42S448.57 891.76 495.68 891.76S546.47 916.75 594.96 916.75S647.74 878.2 694.24 878.2S747.04 912.97 793.53 912.97S844.25 886.89 892.81 886.89S943.21 901.56 992.09 901.56S1044.83 900.86 1091.37 900.86S1141.89 918.25 1190.65 918.25S1242.05 888.89 1289.93 888.89S1341.25 900.61 1389.21 900.61S1439.45 889.8 1488.49 889.8S1539.94 925.49 1587.77 925.49S1637.89 916.41 1687.05 916.41S1737.92 927.74 1786.33 927.74S1838.25 874.66 1885.61 874.66S1937.87 924.47 1984.89 924.47S2036.57 888.95 2084.17 888.95S2135.74 900.02 2183.45 900.02S2233.69 907.19 2282.73 907.19S2333.02 900.98 2382.01 900.98S2433.38 877.24 2481.29 877.24S2530.98 911.63 2580.58 911.63S2632.24 901.66 2679.86 901.66L2660 1283 L-100 1283 Z" fill="#5bcad4" stroke-width="0">
  <animate attributeName="d" dur="9.836065573770492s" repeatCount="indefinite" values="M-100 916.83C-48.72 928.32 -47.93 900.39 -0.72 900.39S49.11 893.82 98.56 893.82S149.39 873.02 197.84 873.02S250.02 901.9 297.12 901.9S347.94 921.42 396.4 921.42S448.57 891.76 495.68 891.76S546.47 916.75 594.96 916.75S647.74 878.2 694.24 878.2S747.04 912.97 793.53 912.97S844.25 886.89 892.81 886.89S943.21 901.56 992.09 901.56S1044.83 900.86 1091.37 900.86S1141.89 918.25 1190.65 918.25S1242.05 888.89 1289.93 888.89S1341.25 900.61 1389.21 900.61S1439.45 889.8 1488.49 889.8S1539.94 925.49 1587.77 925.49S1637.89 916.41 1687.05 916.41S1737.92 927.74 1786.33 927.74S1838.25 874.66 1885.61 874.66S1937.87 924.47 1984.89 924.47S2036.57 888.95 2084.17 888.95S2135.74 900.02 2183.45 900.02S2233.69 907.19 2282.73 907.19S2333.02 900.98 2382.01 900.98S2433.38 877.24 2481.29 877.24S2530.98 911.63 2580.58 911.63S2632.24 901.66 2679.86 901.66L2660 1283 L-100 1283 Z;M-100 918.26C-47.88 912.58 -49.75 921.12 -0.72 921.12S50.97 900.6 98.56 900.6S151.23 922.73 197.84 922.73S249.47 875.14 297.12 875.14S347.41 912.53 396.4 912.53S446.42 899.47 495.68 899.47S546.35 898.75 594.96 898.75S647.34 921.87 694.24 921.87S745.99 926.14 793.53 926.14S843.92 885.42 892.81 885.42S944.78 903.37 992.09 903.37S1042.9 879.45 1091.37 879.45S1143.3 902.05 1190.65 902.05S1240.91 890.63 1289.93 890.63S1342.67 918.02 1389.21 918.02S1439.47 889.8 1488.49 889.8S1541.25 910.12 1587.77 910.12S1638.22 901.86 1687.05 901.86S1739.31 921.77 1786.33 921.77S1836.47 881.07 1885.61 881.07S1935.93 929.92 1984.89 929.92S2037.53 876.42 2084.17 876.42S2134.98 918.53 2183.45 918.53S2233.43 881.6 2282.73 881.6S2334.01 922.64 2382.01 922.64S2431.72 892.45 2481.29 892.45S2532.98 903.46 2580.58 903.46S2632.9 893.61 2679.86 893.61L2660 1283 L-100 1283 Z;M-100 916.83C-48.72 928.32 -47.93 900.39 -0.72 900.39S49.11 893.82 98.56 893.82S149.39 873.02 197.84 873.02S250.02 901.9 297.12 901.9S347.94 921.42 396.4 921.42S448.57 891.76 495.68 891.76S546.47 916.75 594.96 916.75S647.74 878.2 694.24 878.2S747.04 912.97 793.53 912.97S844.25 886.89 892.81 886.89S943.21 901.56 992.09 901.56S1044.83 900.86 1091.37 900.86S1141.89 918.25 1190.65 918.25S1242.05 888.89 1289.93 888.89S1341.25 900.61 1389.21 900.61S1439.45 889.8 1488.49 889.8S1539.94 925.49 1587.77 925.49S1637.89 916.41 1687.05 916.41S1737.92 927.74 1786.33 927.74S1838.25 874.66 1885.61 874.66S1937.87 924.47 1984.89 924.47S2036.57 888.95 2084.17 888.95S2135.74 900.02 2183.45 900.02S2233.69 907.19 2282.73 907.19S2333.02 900.98 2382.01 900.98S2433.38 877.24 2481.29 877.24S2530.98 911.63 2580.58 911.63S2632.24 901.66 2679.86 901.66L2660 1283 L-100 1283 Z"></animate>
  <animateTransform attributeName="transform" type="translate" dur="9.836065573770492s" begin="-3.9344262295081966s" repeatCount="indefinite" values="0;10;0" calcMode="spline" keySplines="0.3 0 0.7 1;0.3 0 0.7 1"></animateTransform>
</path><path d="M-100 924.93C-47.95 907.04 -46.09 967.39 2.22 967.39S56.49 907.23 104.44 907.23S157.05 954.78 206.67 954.78S259.06 935.8 308.89 935.8S361.85 962.52 411.11 962.52S463.4 927.96 513.33 927.96S566.57 953.08 615.56 953.08S667.5 928.21 717.78 928.21S770.5 948.71 820 948.71S873.44 913.16 922.22 913.16S974.83 956.22 1024.44 956.22S1077.73 949.47 1126.67 949.47S1178.95 943.89 1228.89 943.89S1282.17 921.26 1331.11 921.26S1383.42 908.64 1433.33 908.64S1485.08 927.03 1535.56 927.03S1588.89 936.31 1637.78 936.31S1690.47 919.49 1740 919.49S1793.04 966.16 1842.22 966.16S1896.47 916.93 1944.44 916.93S1997.12 906.7 2046.67 906.7S2099.71 910.9 2148.89 910.9S2202.73 938.27 2251.11 938.27S2303.19 943.85 2353.33 943.85S2406.2 960.99 2455.56 960.99S2509.37 916.43 2557.78 916.43S2608.96 942.2 2660 942.2S2713.23 910.42 2762.22 910.42L2660 1283 L-100 1283 Z" fill="#68d3db" stroke-width="0">
  <animate attributeName="d" dur="8.19672131147541s" repeatCount="indefinite" values="M-100 924.93C-47.95 907.04 -46.09 967.39 2.22 967.39S56.49 907.23 104.44 907.23S157.05 954.78 206.67 954.78S259.06 935.8 308.89 935.8S361.85 962.52 411.11 962.52S463.4 927.96 513.33 927.96S566.57 953.08 615.56 953.08S667.5 928.21 717.78 928.21S770.5 948.71 820 948.71S873.44 913.16 922.22 913.16S974.83 956.22 1024.44 956.22S1077.73 949.47 1126.67 949.47S1178.95 943.89 1228.89 943.89S1282.17 921.26 1331.11 921.26S1383.42 908.64 1433.33 908.64S1485.08 927.03 1535.56 927.03S1588.89 936.31 1637.78 936.31S1690.47 919.49 1740 919.49S1793.04 966.16 1842.22 966.16S1896.47 916.93 1944.44 916.93S1997.12 906.7 2046.67 906.7S2099.71 910.9 2148.89 910.9S2202.73 938.27 2251.11 938.27S2303.19 943.85 2353.33 943.85S2406.2 960.99 2455.56 960.99S2509.37 916.43 2557.78 916.43S2608.96 942.2 2660 942.2S2713.23 910.42 2762.22 910.42L2660 1283 L-100 1283 Z;M-100 916.21C-46.22 909.02 -47.47 948.73 2.22 948.73S55.55 941.93 104.44 941.93S157.48 957.28 206.67 957.28S260.53 951.71 308.89 951.71S362.75 956.75 411.11 956.75S464.74 924.99 513.33 924.99S566.2 932.38 615.56 932.38S666.94 924.81 717.78 924.81S770.28 965.46 820 965.46S872.95 927.53 922.22 927.53S976.37 937.5 1024.44 937.5S1077.17 931.27 1126.67 931.27S1178.35 917.84 1228.89 917.84S1281.59 920.02 1331.11 920.02S1382.4 942.44 1433.33 942.44S1486.64 922.55 1535.56 922.55S1588.62 945.56 1637.78 945.56S1691.93 923.25 1740 923.25S1791.48 916.53 1842.22 916.53S1896.39 906.78 1944.44 906.78S1998.03 955.37 2046.67 955.37S2099.28 916.67 2148.89 916.67S2200.3 938.71 2251.11 938.71S2303.45 915.04 2353.33 915.04S2404.83 949.09 2455.56 949.09S2508.62 922.36 2557.78 922.36S2611.22 932.79 2660 932.79S2713.35 946.48 2762.22 946.48L2660 1283 L-100 1283 Z;M-100 924.93C-47.95 907.04 -46.09 967.39 2.22 967.39S56.49 907.23 104.44 907.23S157.05 954.78 206.67 954.78S259.06 935.8 308.89 935.8S361.85 962.52 411.11 962.52S463.4 927.96 513.33 927.96S566.57 953.08 615.56 953.08S667.5 928.21 717.78 928.21S770.5 948.71 820 948.71S873.44 913.16 922.22 913.16S974.83 956.22 1024.44 956.22S1077.73 949.47 1126.67 949.47S1178.95 943.89 1228.89 943.89S1282.17 921.26 1331.11 921.26S1383.42 908.64 1433.33 908.64S1485.08 927.03 1535.56 927.03S1588.89 936.31 1637.78 936.31S1690.47 919.49 1740 919.49S1793.04 966.16 1842.22 966.16S1896.47 916.93 1944.44 916.93S1997.12 906.7 2046.67 906.7S2099.71 910.9 2148.89 910.9S2202.73 938.27 2251.11 938.27S2303.19 943.85 2353.33 943.85S2406.2 960.99 2455.56 960.99S2509.37 916.43 2557.78 916.43S2608.96 942.2 2660 942.2S2713.23 910.42 2762.22 910.42L2660 1283 L-100 1283 Z"></animate>
  <animateTransform attributeName="transform" type="translate" dur="8.19672131147541s" begin="-4.098360655737705s" repeatCount="indefinite" values="0;10;0" calcMode="spline" keySplines="0.3 0 0.7 1;0.3 0 0.7 1"></animateTransform>
</path><path d="M-100 941.37C-45.8 951.1 -45.35 1005.28 5.34 1005.28S58.53 948.51 110.69 948.51S166.49 986.73 216.03 986.73S270.87 945.65 321.37 945.65S376.64 983.92 426.72 983.92S481.16 937.58 532.06 937.58S586.84 966.75 637.4 966.75S691.95 964.18 742.75 964.18S798.56 986.3 848.09 986.3S903.38 968.21 953.44 968.21S1007.15 996.71 1058.78 996.71S1111.73 977.55 1164.12 977.55S1218.01 976.38 1269.47 976.38S1323.29 986.61 1374.81 986.61S1428.88 981.55 1480.15 981.55S1535.68 994.39 1585.5 994.39S1638.69 998.63 1690.84 998.63S1744.8 953.1 1796.18 953.1S1849.85 986.61 1901.53 986.61S1955.18 939.45 2006.87 939.45S2062.51 982.99 2112.21 982.99S2165.72 941.48 2217.56 941.48S2270.34 997.28 2322.9 997.28S2375.83 941.66 2428.24 941.66S2482.29 1006.35 2533.59 1006.35S2588.52 967.4 2638.93 967.4S2693.14 985.03 2744.27 985.03L2660 1283 L-100 1283 Z" fill="#75dce2" stroke-width="0">
  <animate attributeName="d" dur="6.557377049180328s" repeatCount="indefinite" values="M-100 941.37C-45.8 951.1 -45.35 1005.28 5.34 1005.28S58.53 948.51 110.69 948.51S166.49 986.73 216.03 986.73S270.87 945.65 321.37 945.65S376.64 983.92 426.72 983.92S481.16 937.58 532.06 937.58S586.84 966.75 637.4 966.75S691.95 964.18 742.75 964.18S798.56 986.3 848.09 986.3S903.38 968.21 953.44 968.21S1007.15 996.71 1058.78 996.71S1111.73 977.55 1164.12 977.55S1218.01 976.38 1269.47 976.38S1323.29 986.61 1374.81 986.61S1428.88 981.55 1480.15 981.55S1535.68 994.39 1585.5 994.39S1638.69 998.63 1690.84 998.63S1744.8 953.1 1796.18 953.1S1849.85 986.61 1901.53 986.61S1955.18 939.45 2006.87 939.45S2062.51 982.99 2112.21 982.99S2165.72 941.48 2217.56 941.48S2270.34 997.28 2322.9 997.28S2375.83 941.66 2428.24 941.66S2482.29 1006.35 2533.59 1006.35S2588.52 967.4 2638.93 967.4S2693.14 985.03 2744.27 985.03L2660 1283 L-100 1283 Z;M-100 944.75C-46.34 948.41 -45.75 992.51 5.34 992.51S60.98 945.4 110.69 945.4S165.69 999.27 216.03 999.27S271.6 942.73 321.37 942.73S375.53 993.15 426.72 993.15S479.51 946.86 532.06 946.86S587.19 1006.48 637.4 1006.48S691.22 943.34 742.75 943.34S796 986.26 848.09 986.26S901.68 945.34 953.44 945.34S1008.85 1005.56 1058.78 1005.56S1112.5 953.65 1164.12 953.65S1217.07 990.07 1269.47 990.07S1322.92 947.83 1374.81 947.83S1429.84 996.57 1480.15 996.57S1534.49 941.12 1585.5 941.12S1638.36 988.04 1690.84 988.04S1744.58 950.19 1796.18 950.19S1852.05 985.25 1901.53 985.25S1954.9 960.46 2006.87 960.46S2062.11 949.74 2112.21 949.74S2164.99 939.93 2217.56 939.93S2271.93 993.66 2322.9 993.66S2378.34 946.97 2428.24 946.97S2481.74 995.31 2533.59 995.31S2589.21 958.75 2638.93 958.75S2694.22 964.99 2744.27 964.99L2660 1283 L-100 1283 Z;M-100 941.37C-45.8 951.1 -45.35 1005.28 5.34 1005.28S58.53 948.51 110.69 948.51S166.49 986.73 216.03 986.73S270.87 945.65 321.37 945.65S376.64 983.92 426.72 983.92S481.16 937.58 532.06 937.58S586.84 966.75 637.4 966.75S691.95 964.18 742.75 964.18S798.56 986.3 848.09 986.3S903.38 968.21 953.44 968.21S1007.15 996.71 1058.78 996.71S1111.73 977.55 1164.12 977.55S1218.01 976.38 1269.47 976.38S1323.29 986.61 1374.81 986.61S1428.88 981.55 1480.15 981.55S1535.68 994.39 1585.5 994.39S1638.69 998.63 1690.84 998.63S1744.8 953.1 1796.18 953.1S1849.85 986.61 1901.53 986.61S1955.18 939.45 2006.87 939.45S2062.51 982.99 2112.21 982.99S2165.72 941.48 2217.56 941.48S2270.34 997.28 2322.9 997.28S2375.83 941.66 2428.24 941.66S2482.29 1006.35 2533.59 1006.35S2588.52 967.4 2638.93 967.4S2693.14 985.03 2744.27 985.03L2660 1283 L-100 1283 Z"></animate>
  <animateTransform attributeName="transform" type="translate" dur="6.557377049180328s" begin="-3.9344262295081966s" repeatCount="indefinite" values="0;10;0" calcMode="spline" keySplines="0.3 0 0.7 1;0.3 0 0.7 1"></animateTransform>
</path><path d="M-100 993.9C-42.63 976.36 -45.17 1016.41 8.66 1016.41S65.91 987.31 117.32 987.31S174.55 996.11 225.98 996.11S283.42 1000 334.65 1000S391.69 1042.89 443.31 1042.89S499.52 974.47 551.97 974.47S607.08 1040.57 660.63 1040.57S717.41 980.7 769.29 980.7S826.29 1041.65 877.95 1041.65S933.9 979.42 986.61 979.42S1043.34 1032.98 1095.28 1032.98S1150.13 1028.15 1203.94 1028.15S1260.6 1036.93 1312.6 1036.93S1367.7 994.51 1421.26 994.51S1476.55 1026.12 1529.92 1026.12S1585.87 989.76 1638.58 989.76S1693.38 1041.55 1747.24 1041.55S1803.25 984.74 1855.91 984.74S1913.33 1020.41 1964.57 1020.41S2019.36 992.53 2073.23 992.53S2129.07 1039.46 2181.89 1039.46S2239.36 969.66 2290.55 969.66S2346.08 1027.5 2399.21 1027.5S2456.46 985.1 2507.87 985.1S2563.75 1015.75 2616.54 1015.75S2672.92 999.16 2725.2 999.16L2660 1283 L-100 1283 Z" fill="#81e4e9" stroke-width="0">
  <animate attributeName="d" dur="4.918032786885246s" repeatCount="indefinite" values="M-100 993.9C-42.63 976.36 -45.17 1016.41 8.66 1016.41S65.91 987.31 117.32 987.31S174.55 996.11 225.98 996.11S283.42 1000 334.65 1000S391.69 1042.89 443.31 1042.89S499.52 974.47 551.97 974.47S607.08 1040.57 660.63 1040.57S717.41 980.7 769.29 980.7S826.29 1041.65 877.95 1041.65S933.9 979.42 986.61 979.42S1043.34 1032.98 1095.28 1032.98S1150.13 1028.15 1203.94 1028.15S1260.6 1036.93 1312.6 1036.93S1367.7 994.51 1421.26 994.51S1476.55 1026.12 1529.92 1026.12S1585.87 989.76 1638.58 989.76S1693.38 1041.55 1747.24 1041.55S1803.25 984.74 1855.91 984.74S1913.33 1020.41 1964.57 1020.41S2019.36 992.53 2073.23 992.53S2129.07 1039.46 2181.89 1039.46S2239.36 969.66 2290.55 969.66S2346.08 1027.5 2399.21 1027.5S2456.46 985.1 2507.87 985.1S2563.75 1015.75 2616.54 1015.75S2672.92 999.16 2725.2 999.16L2660 1283 L-100 1283 Z;M-100 983.94C-43.88 996.3 -42.56 1034 8.66 1034S63.7 998.35 117.32 998.35S174.49 1031.81 225.98 1031.81S283.27 970.25 334.65 970.25S391.22 1016.9 443.31 1016.9S500.24 972.03 551.97 972.03S606.4 1014.35 660.63 1014.35S715.69 988.89 769.29 988.89S826.66 1045.45 877.95 1045.45S934.27 986.72 986.61 986.72S1043.6 1029.68 1095.28 1029.68S1149.86 992.92 1203.94 992.92S1259.32 1029.65 1312.6 1029.65S1367.1 1043.8 1421.26 1043.8S1477.94 1033.28 1529.92 1033.28S1586.98 976.68 1638.58 976.68S1694.77 1031.6 1747.24 1031.6S1803.13 1023.72 1855.91 1023.72S1910.94 1045.19 1964.57 1045.19S2021.89 986.99 2073.23 986.99S2128.1 1042.02 2181.89 1042.02S2236.68 989.81 2290.55 989.81S2347.55 1021.24 2399.21 1021.24S2455.39 976.27 2507.87 976.27S2563.54 1026.54 2616.54 1026.54S2673.3 993.33 2725.2 993.33L2660 1283 L-100 1283 Z;M-100 993.9C-42.63 976.36 -45.17 1016.41 8.66 1016.41S65.91 987.31 117.32 987.31S174.55 996.11 225.98 996.11S283.42 1000 334.65 1000S391.69 1042.89 443.31 1042.89S499.52 974.47 551.97 974.47S607.08 1040.57 660.63 1040.57S717.41 980.7 769.29 980.7S826.29 1041.65 877.95 1041.65S933.9 979.42 986.61 979.42S1043.34 1032.98 1095.28 1032.98S1150.13 1028.15 1203.94 1028.15S1260.6 1036.93 1312.6 1036.93S1367.7 994.51 1421.26 994.51S1476.55 1026.12 1529.92 1026.12S1585.87 989.76 1638.58 989.76S1693.38 1041.55 1747.24 1041.55S1803.25 984.74 1855.91 984.74S1913.33 1020.41 1964.57 1020.41S2019.36 992.53 2073.23 992.53S2129.07 1039.46 2181.89 1039.46S2239.36 969.66 2290.55 969.66S2346.08 1027.5 2399.21 1027.5S2456.46 985.1 2507.87 985.1S2563.75 1015.75 2616.54 1015.75S2672.92 999.16 2725.2 999.16L2660 1283 L-100 1283 Z"></animate>
  <animateTransform attributeName="transform" type="translate" dur="4.918032786885246s" begin="-3.442622950819672s" repeatCount="indefinite" values="0;10;0" calcMode="spline" keySplines="0.3 0 0.7 1;0.3 0 0.7 1"></animateTransform>
</path><path d="M-100 1011.08C-42.58 1031.39 -42.45 1064.39 12.2 1064.39S69.8 1024.38 124.39 1024.38S183.53 1066.83 236.59 1066.83S294.17 1015.43 348.78 1015.43S405.28 1080.64 460.98 1080.64S518.81 1008.66 573.17 1008.66S632.43 1082.77 685.37 1082.77S744.16 1013.05 797.56 1013.05S853.98 1065.7 909.76 1065.7S968.9 1012.1 1021.95 1012.1S1079.31 1011.32 1134.15 1011.32S1190.52 1008.69 1246.34 1008.69S1304.27 1025.29 1358.54 1025.29S1416.24 1030.7 1470.73 1030.7S1527.85 1057.68 1582.93 1057.68S1641.87 1075.93 1695.12 1075.93S1753.35 1070.23 1807.32 1070.23S1866.11 1025.09 1919.51 1025.09S1978.65 1058.9 2031.71 1058.9S2090.06 1021.27 2143.9 1021.27S2201.27 1062.4 2256.1 1062.4S2313.69 1022.29 2368.29 1022.29S2426.91 1082.81 2480.49 1082.81S2536.77 1005.29 2592.68 1005.29S2648.95 1066.88 2704.88 1066.88L2660 1283 L-100 1283 Z" fill="#8eedf0" stroke-width="0">
  <animate attributeName="d" dur="3.278688524590164s" repeatCount="indefinite" values="M-100 1011.08C-42.58 1031.39 -42.45 1064.39 12.2 1064.39S69.8 1024.38 124.39 1024.38S183.53 1066.83 236.59 1066.83S294.17 1015.43 348.78 1015.43S405.28 1080.64 460.98 1080.64S518.81 1008.66 573.17 1008.66S632.43 1082.77 685.37 1082.77S744.16 1013.05 797.56 1013.05S853.98 1065.7 909.76 1065.7S968.9 1012.1 1021.95 1012.1S1079.31 1011.32 1134.15 1011.32S1190.52 1008.69 1246.34 1008.69S1304.27 1025.29 1358.54 1025.29S1416.24 1030.7 1470.73 1030.7S1527.85 1057.68 1582.93 1057.68S1641.87 1075.93 1695.12 1075.93S1753.35 1070.23 1807.32 1070.23S1866.11 1025.09 1919.51 1025.09S1978.65 1058.9 2031.71 1058.9S2090.06 1021.27 2143.9 1021.27S2201.27 1062.4 2256.1 1062.4S2313.69 1022.29 2368.29 1022.29S2426.91 1082.81 2480.49 1082.81S2536.77 1005.29 2592.68 1005.29S2648.95 1066.88 2704.88 1066.88L2660 1283 L-100 1283 Z;M-100 1015.64C-43.49 1031.25 -42.05 1082.97 12.2 1082.97S68.65 1013 124.39 1013S180.64 1083.79 236.59 1083.79S292.71 1008.67 348.78 1008.67S405.06 1058.33 460.98 1058.33S517.49 1027.82 573.17 1027.82S631.53 1005.33 685.37 1005.33S742.48 1009.96 797.56 1009.96S855.77 1021.75 909.76 1021.75S966.08 1018.93 1021.95 1018.93S1079.11 1077.24 1134.15 1077.24S1192.61 1025.42 1246.34 1025.42S1303.33 1023.77 1358.54 1023.77S1416.6 1007.68 1470.73 1007.68S1529.27 1082.77 1582.93 1082.77S1639.28 1006.51 1695.12 1006.51S1751.68 1060.78 1807.32 1060.78S1865.43 1001.67 1919.51 1001.67S1977.78 1077.61 2031.71 1077.61S2088.69 1014.32 2143.9 1014.32S2200.92 1064.41 2256.1 1064.41S2312.85 1028.44 2368.29 1028.44S2425.65 1053.56 2480.49 1053.56S2537.31 1014.11 2592.68 1014.11S2651.57 1078.3 2704.88 1078.3L2660 1283 L-100 1283 Z;M-100 1011.08C-42.58 1031.39 -42.45 1064.39 12.2 1064.39S69.8 1024.38 124.39 1024.38S183.53 1066.83 236.59 1066.83S294.17 1015.43 348.78 1015.43S405.28 1080.64 460.98 1080.64S518.81 1008.66 573.17 1008.66S632.43 1082.77 685.37 1082.77S744.16 1013.05 797.56 1013.05S853.98 1065.7 909.76 1065.7S968.9 1012.1 1021.95 1012.1S1079.31 1011.32 1134.15 1011.32S1190.52 1008.69 1246.34 1008.69S1304.27 1025.29 1358.54 1025.29S1416.24 1030.7 1470.73 1030.7S1527.85 1057.68 1582.93 1057.68S1641.87 1075.93 1695.12 1075.93S1753.35 1070.23 1807.32 1070.23S1866.11 1025.09 1919.51 1025.09S1978.65 1058.9 2031.71 1058.9S2090.06 1021.27 2143.9 1021.27S2201.27 1062.4 2256.1 1062.4S2313.69 1022.29 2368.29 1022.29S2426.91 1082.81 2480.49 1082.81S2536.77 1005.29 2592.68 1005.29S2648.95 1066.88 2704.88 1066.88L2660 1283 L-100 1283 Z"></animate>
  <animateTransform attributeName="transform" type="translate" dur="3.278688524590164s" begin="-2.6229508196721314s" repeatCount="indefinite" values="0;10;0" calcMode="spline" keySplines="0.3 0 0.7 1;0.3 0 0.7 1"></animateTransform>
</path><path d="M-100 1048.55C-40.42 1054 -41.28 1094.83 15.97 1094.83S75.33 1053.1 131.93 1053.1S191.64 1096.04 247.9 1096.04S308.8 1054.28 363.87 1054.28S422.43 1115.95 479.83 1115.95S540.2 1091.21 595.8 1091.21S654.07 1055.52 711.76 1055.52S771.06 1056.07 827.73 1056.07S885.87 1094.13 943.7 1094.13S1002.42 1058 1059.66 1058S1117.95 1091.42 1175.63 1091.42S1236.57 1036.58 1291.6 1036.58S1351.23 1110.87 1407.56 1110.87S1465.91 1037.38 1523.53 1037.38S1581.71 1116.53 1639.5 1116.53S1698.18 1098.01 1755.46 1098.01S1814.1 1094.81 1871.43 1094.81S1930.83 1062.04 1987.39 1062.04S2048.1 1097.34 2103.36 1097.34S2161.67 1045.26 2219.33 1045.26S2279.41 1117.72 2335.29 1117.72S2396.45 1050.21 2451.26 1050.21S2512.07 1100.46 2567.23 1100.46S2626.53 1035.98 2683.19 1035.98L2660 1283 L-100 1283 Z" fill="#9af6f8" stroke-width="0">
  <animate attributeName="d" dur="1.639344262295082s" repeatCount="indefinite" values="M-100 1048.55C-40.42 1054 -41.28 1094.83 15.97 1094.83S75.33 1053.1 131.93 1053.1S191.64 1096.04 247.9 1096.04S308.8 1054.28 363.87 1054.28S422.43 1115.95 479.83 1115.95S540.2 1091.21 595.8 1091.21S654.07 1055.52 711.76 1055.52S771.06 1056.07 827.73 1056.07S885.87 1094.13 943.7 1094.13S1002.42 1058 1059.66 1058S1117.95 1091.42 1175.63 1091.42S1236.57 1036.58 1291.6 1036.58S1351.23 1110.87 1407.56 1110.87S1465.91 1037.38 1523.53 1037.38S1581.71 1116.53 1639.5 1116.53S1698.18 1098.01 1755.46 1098.01S1814.1 1094.81 1871.43 1094.81S1930.83 1062.04 1987.39 1062.04S2048.1 1097.34 2103.36 1097.34S2161.67 1045.26 2219.33 1045.26S2279.41 1117.72 2335.29 1117.72S2396.45 1050.21 2451.26 1050.21S2512.07 1100.46 2567.23 1100.46S2626.53 1035.98 2683.19 1035.98L2660 1283 L-100 1283 Z;M-100 1042.21C-40.49 1033.08 -39.21 1110.52 15.97 1110.52S75.04 1050.47 131.93 1050.47S190.97 1110.38 247.9 1110.38S307.48 1034.43 363.87 1034.43S422.4 1117.3 479.83 1117.3S539.39 1058.67 595.8 1058.67S656.02 1060.96 711.76 1060.96S771.42 1057.96 827.73 1057.96S888.72 1094.03 943.7 1094.03S1004.49 1060.93 1059.66 1060.93S1118.73 1099.57 1175.63 1099.57S1233.68 1049.44 1291.6 1049.44S1352.13 1097.19 1407.56 1097.19S1468.38 1043.21 1523.53 1043.21S1583.16 1033.93 1639.5 1033.93S1700.45 1034.91 1755.46 1034.91S1816.13 1113.32 1871.43 1113.32S1931.71 1050.06 1987.39 1050.06S2048.31 1104.09 2103.36 1104.09S2162.49 1047.73 2219.33 1047.73S2279.17 1041.62 2335.29 1041.62S2395.92 1101.03 2451.26 1101.03S2510.35 1035.79 2567.23 1035.79S2628.14 1052.47 2683.19 1052.47L2660 1283 L-100 1283 Z;M-100 1048.55C-40.42 1054 -41.28 1094.83 15.97 1094.83S75.33 1053.1 131.93 1053.1S191.64 1096.04 247.9 1096.04S308.8 1054.28 363.87 1054.28S422.43 1115.95 479.83 1115.95S540.2 1091.21 595.8 1091.21S654.07 1055.52 711.76 1055.52S771.06 1056.07 827.73 1056.07S885.87 1094.13 943.7 1094.13S1002.42 1058 1059.66 1058S1117.95 1091.42 1175.63 1091.42S1236.57 1036.58 1291.6 1036.58S1351.23 1110.87 1407.56 1110.87S1465.91 1037.38 1523.53 1037.38S1581.71 1116.53 1639.5 1116.53S1698.18 1098.01 1755.46 1098.01S1814.1 1094.81 1871.43 1094.81S1930.83 1062.04 1987.39 1062.04S2048.1 1097.34 2103.36 1097.34S2161.67 1045.26 2219.33 1045.26S2279.41 1117.72 2335.29 1117.72S2396.45 1050.21 2451.26 1050.21S2512.07 1100.46 2567.23 1100.46S2626.53 1035.98 2683.19 1035.98L2660 1283 L-100 1283 Z"></animate>
  <animateTransform attributeName="transform" type="translate" dur="1.639344262295082s" begin="-1.4754098360655739s" repeatCount="indefinite" values="0;10;0" calcMode="spline" keySplines="0.3 0 0.7 1;0.3 0 0.7 1"></animateTransform>
</path></g>
</svg>