<?xml version="1.0" encoding="utf-8"?><svg xmlns="http://www.w3.org/2000/svg" xmlns:xlink="http://www.w3.org/1999/xlink" width="2560" height="1283" preserveAspectRatio="xMidYMid" viewBox="0 0 2560 1283" style="z-index:1;display:block;background-color:rgb(218, 250, 255);animation-play-state:paused" ><g transform="translate(1280,641.5) scale(1,1) translate(-1280,-641.5)" style="transform:matrix(1, 0, 0, 1, 0, 0);animation-play-state:paused" ><path d="M -100 765.09 C -54.87 753.73 -54.61 771.93 -10.97 771.93 S 35.31 768.9 78.06 768.9 S 124.44 769.55 167.1 769.55 S 214.59 767.54 256.13 767.54 S 301.8 746.53 345.16 746.53 S 391.12 768.2 434.19 768.2 S 480.02 765.97 523.23 765.97 S 570.54 760.08 612.26 760.08 S 657.02 750.82 701.29 750.82 S 747.02 746.16 790.32 746.16 S 835.11 761.69 879.35 761.69 S 925.67 768.54 968.39 768.54 S 1013.46 767.18 1057.42 767.18 S 1103.78 748.85 1146.45 748.85 S 1191.47 773.45 1235.48 773.45 S 1282.69 770.17 1324.52 770.17 S 1370.47 771.45 1413.55 771.45 S 1459.94 752.33 1502.58 752.33 S 1549 749.8 1591.61 749.8 S 1636.84 768.29 1680.65 768.29 S 1726.86 770.09 1769.68 770.09 S 1816.89 746.85 1858.71 746.85 S 1903.66 771.87 1947.74 771.87 S 1993.6 752.5 2036.77 752.5 S 2081.36 748.42 2125.81 748.42 S 2171.04 770.05 2214.84 770.05 S 2260.46 757.58 2303.87 757.58 S 2351.07 757.97 2392.9 757.97 S 2440.48 773.89 2481.94 773.89 S 2528.8 775.73 2570.97 775.73 S 2616.41 761.37 2660 761.37 S 2705.3 758.45 2749.03 758.45 L 2660 1283 L -100 1283 Z" fill="#1293a2" stroke-width="0" transform="matrix(1,0,0,1,0,0)" style="transform:matrix(1, 0, 0, 1, 0, 0);animation-play-state:paused" ></path>
<path d="M -100 779.66 C -53.6 779.26 -52.03 791.83 -8.61 791.83 S 38.29 801.92 82.78 801.92 S 131.24 804.19 174.17 804.19 S 223.02 776.55 265.56 776.55 S 313.86 790.97 356.95 790.97 S 405.5 784.48 448.34 784.48 S 496.99 789.06 539.74 789.06 S 588.41 796.59 631.13 796.59 S 677.4 814.69 722.52 814.69 S 770.79 786.78 813.91 786.78 S 861.5 803.07 905.3 803.07 S 952.47 800.85 996.69 800.85 S 1043.24 809.83 1088.08 809.83 S 1136.24 789.37 1179.47 789.37 S 1225.35 793.36 1270.86 793.36 S 1317.3 790.4 1362.25 790.4 S 1408.5 806.61 1453.64 806.61 S 1502.2 788.01 1545.03 788.01 S 1591.42 795.69 1636.42 795.69 S 1683.62 784.95 1727.81 784.95 S 1773.72 809.1 1819.21 809.1 S 1867.26 784.21 1910.6 784.21 S 1958.84 790.05 2001.99 790.05 S 2049.97 777.42 2093.38 777.42 S 2140.49 804.41 2184.77 804.41 S 2231.08 802.94 2276.16 802.94 S 2324.7 802.12 2367.55 802.12 S 2413.8 803.77 2458.94 803.77 S 2504.96 799.17 2550.33 799.17 S 2596.66 789.82 2641.72 789.82 S 2690.54 805.94 2733.11 805.94 L 2660 1283 L -100 1283 Z" fill="#279ba8" stroke-width="0" transform="matrix(1,0,0,1,1.1340199708938599,0)" style="transform:matrix(1, 0, 0, 1, 1.13402, 0);animation-play-state:paused" ></path>
<path d="M -100 833.15 C -50.65 821.6 -52.42 842 -6.12 842 S 43.56 838.62 87.76 838.62 S 136.76 831.16 181.63 831.16 S 229.97 840.31 275.51 840.31 S 324.44 850.2 369.39 850.2 S 417.56 826.44 463.27 826.44 S 510.23 830.37 557.14 830.37 S 604.82 815.26 651.02 815.26 S 698.45 820.82 744.9 820.82 S 794.2 815.22 838.78 815.22 S 888.32 832.49 932.65 832.49 S 980.95 834.89 1026.53 834.89 S 1074.68 828.29 1120.41 828.29 S 1168.27 837.67 1214.29 837.67 S 1264.16 839.09 1308.16 839.09 S 1357.75 818.85 1402.04 818.85 S 1451.88 845.1 1495.92 845.1 S 1545.24 821.7 1589.8 821.7 S 1637.22 850.69 1683.67 850.69 S 1731.92 836.98 1777.55 836.98 S 1825.86 825.76 1871.43 825.76 S 1920.71 851.04 1965.31 851.04 S 2013.42 814.6 2059.18 814.6 S 2109.03 833.02 2153.06 833.02 S 2202.41 826.05 2246.94 826.05 S 2295.69 811.01 2340.82 811.01 S 2389.8 841.83 2434.69 841.83 S 2482.58 823.52 2528.57 823.52 S 2577.05 853.02 2622.45 853.02 S 2672.01 814.1 2716.33 814.1 L 2660 1283 L -100 1283 Z" fill="#37a3af" stroke-width="0" transform="matrix(1,0,0,1,3.5863146781921387,0)" style="transform:matrix(1, 0, 0, 1, 3.58631, 0);animation-play-state:paused" ></path>
<path d="M -100 867.35 C -49.36 843.17 -49.99 866.53 -3.5 866.53 S 45.47 845.28 93.01 845.28 S 142.75 877.37 189.51 877.37 S 237.98 843.39 286.01 843.39 S 337.32 879.77 382.52 879.77 S 433.87 856.15 479.02 856.15 S 528.49 861.57 575.52 861.57 S 624.78 844.27 672.03 844.27 S 723.01 874.49 768.53 874.49 S 818.37 854.87 865.03 854.87 S 913.83 868.84 961.54 868.84 S 1012.79 851.59 1058.04 851.59 S 1107.09 882.36 1154.55 882.36 S 1204.48 845.37 1251.05 845.37 S 1299.96 875.84 1347.55 875.84 S 1397.9 855.91 1444.06 855.91 S 1493.31 891.26 1540.56 891.26 S 1591.65 868.5 1637.06 868.5 S 1685.39 890.65 1733.57 890.65 S 1783.99 858.55 1830.07 858.55 S 1879.94 885.79 1926.57 885.79 S 1974.93 844.4 2023.08 844.4 S 2071.59 888.03 2119.58 888.03 S 2169.88 862.41 2216.08 862.41 S 2267.23 890 2312.59 890 S 2362.59 869.61 2409.09 869.61 S 2458.62 865.18 2505.59 865.18 S 2555.04 845.18 2602.1 845.18 S 2650.71 868.36 2698.6 868.36 L 2660 1283 L -100 1283 Z" fill="#44abb5" stroke-width="0" transform="matrix(1,0,0,1,6.4136857986450195,0)" style="transform:matrix(1, 0, 0, 1, 6.41369, 0);animation-play-state:paused" ></path>
<path d="M -100 884.45 C -48.13 886.58 -49.06 928.48 -0.72 928.48 S 50.79 889.56 98.56 889.56 S 150.21 923.53 197.84 923.53 S 250.2 902.6 297.12 902.6 S 349.96 913.91 396.4 913.91 S 449.23 877.54 495.68 877.54 S 547.9 916.36 594.96 916.36 S 647.78 926.55 694.24 926.55 S 744.89 927.81 793.53 927.81 S 843.94 883.69 892.81 883.69 S 943.41 921.41 992.09 921.41 S 1044.62 875.8 1091.37 875.8 S 1141.78 907.46 1190.65 907.46 S 1241.51 919.01 1289.93 919.01 S 1342.55 904.08 1389.21 904.08 S 1441.79 886.59 1488.49 886.59 S 1539.48 921.5 1587.77 921.5 S 1639.45 909.85 1687.05 909.85 S 1738.27 909.48 1786.33 909.48 S 1838.69 886.24 1885.61 886.24 S 1937.65 923.21 1984.89 923.21 S 2035.62 897.52 2084.17 897.52 S 2134.7 902.46 2183.45 902.46 S 2235.07 883.2 2282.73 883.2 S 2334.37 902.79 2382.01 902.79 S 2434.11 878.43 2481.29 878.43 S 2532.14 929.23 2580.58 929.23 S 2631.4 893.15 2679.86 893.15 L 2660 1283 L -100 1283 Z" fill="#50b3bc" stroke-width="0" transform="matrix(1,0,0,1,8.86598014831543,0)" style="transform:matrix(1, 0, 0, 1, 8.86598, 0);animation-play-state:paused" ></path>
<path d="M -100 916.95 C -48.88 934.66 -47.37 952.38 2.22 952.38 S 55.51 935.87 104.44 935.87 S 158.43 947.48 206.67 947.48 S 258.41 907.48 308.89 907.48 S 363.05 920.93 411.11 920.93 S 464.37 914.22 513.33 914.22 S 565.6 955.75 615.56 955.75 S 667.11 921.51 717.78 921.51 S 770.36 943.27 820 943.27 S 871.3 925.39 922.22 925.39 S 976.03 943.94 1024.44 943.94 S 1078.59 918.9 1126.67 918.9 S 1179.67 946.1 1228.89 946.1 S 1280.13 956.08 1331.11 956.08 S 1382.43 955.3 1433.33 955.3 S 1487.15 934.3 1535.56 934.3 S 1589.76 940.44 1637.78 940.44 S 1689.57 937.32 1740 937.32 S 1793.81 962.67 1842.22 962.67 S 1895.7 907.17 1944.44 907.17 S 1996.79 952.13 2046.67 952.13 S 2100.5 911.4 2148.89 911.4 S 2200.94 949.81 2251.11 949.81 S 2304.23 914.88 2353.33 914.88 S 2406.81 946.25 2455.56 946.25 S 2509.19 929.87 2557.78 929.87 S 2610.45 944.81 2660 944.81 S 2711.57 924.28 2762.22 924.28 L 2660 1283 L -100 1283 Z" fill="#5bbbc2" stroke-width="0" transform="matrix(1,0,0,1,10,0)" style="transform:matrix(1, 0, 0, 1, 10, 0);animation-play-state:paused" ></path>
<path d="M -100 944.98 C -46.13 953.87 -45.05 995.09 5.34 995.09 S 60.44 965.54 110.69 965.54 S 165.7 999.97 216.03 999.97 S 271.9 951.42 321.37 951.42 S 376.67 980.13 426.72 980.13 S 479.89 951.14 532.06 951.14 S 587.64 939.57 637.4 939.57 S 690.94 950.32 742.75 950.32 S 796.29 959.83 848.09 959.83 S 901.96 941.08 953.44 941.08 S 1006.6 978.53 1058.78 978.53 S 1113.98 963.11 1164.12 963.11 S 1219.75 996.58 1269.47 996.58 S 1324.19 998.87 1374.81 998.87 S 1428.05 975.85 1480.15 975.85 S 1534.97 956.15 1585.5 956.15 S 1639.82 1005.78 1690.84 1005.78 S 1744.59 990.14 1796.18 990.14 S 1851.92 965.53 1901.53 965.53 S 1956.51 955.61 2006.87 955.61 S 2062.17 980.67 2112.21 980.67 S 2167.7 954.93 2217.56 954.93 S 2270.61 948.15 2322.9 948.15 S 2378.47 951.8 2428.24 951.8 S 2483.27 975.21 2533.59 975.21 S 2587.9 977.6 2638.93 977.6 S 2692.42 941.86 2744.27 941.86 L 2660 1283 L -100 1283 Z" fill="#66c3c9" stroke-width="0" transform="matrix(1,0,0,1,8.86598014831543,0)" style="transform:matrix(1, 0, 0, 1, 8.86598, 0);animation-play-state:paused" ></path>
<path d="M -100 985.35 C -43.36 973.55 -45.38 1026.17 8.66 1026.17 S 63.77 982.14 117.32 982.14 S 173.57 1037.12 225.98 1037.12 S 281.16 990.62 334.65 990.62 S 391.51 1043.69 443.31 1043.69 S 499.94 973.93 551.97 973.93 S 608.95 1035.4 660.63 1035.4 S 716.13 995.17 769.29 995.17 S 826.08 1028.29 877.95 1028.29 S 932.47 992.42 986.61 992.42 S 1041.17 1027.29 1095.28 1027.29 S 1150.31 999.55 1203.94 999.55 S 1260.54 993.45 1312.6 993.45 S 1369.68 995.17 1421.26 995.17 S 1478.04 1028.23 1529.92 1028.23 S 1584.51 1043.9 1638.58 1043.9 S 1693.75 1019.72 1747.24 1019.72 S 1804.18 987.44 1855.91 987.44 S 1910.93 1038.21 1964.57 1038.21 S 2021.71 1038.71 2073.23 1038.71 S 2127.87 1022.15 2181.89 1022.15 S 2237.58 983.79 2290.55 983.79 S 2346.52 1039.98 2399.21 1039.98 S 2454.55 987.9 2507.87 987.9 S 2563.43 1036.46 2616.54 1036.46 S 2671.25 998.41 2725.2 998.41 L 2660 1283 L -100 1283 Z" fill="#71cbcf" stroke-width="0" transform="matrix(1,0,0,1,6.4136857986450195,0)" style="transform:matrix(1, 0, 0, 1, 6.41369, 0);animation-play-state:paused" ></path>
<path d="M -100 1015.21 C -43.6 1007.03 -41.11 1013.09 12.2 1013.09 S 69.75 1001.57 124.39 1001.57 S 182.33 1067.53 236.59 1067.53 S 292.87 1029.89 348.78 1029.89 S 407.45 1055.8 460.98 1055.8 S 519.46 1074.82 573.17 1074.82 S 631.54 1059.97 685.37 1059.97 S 742.21 1060.47 797.56 1060.47 S 855.31 1067.73 909.76 1067.73 S 966.79 1029.85 1021.95 1029.85 S 1080.24 1003.96 1134.15 1003.96 S 1191.59 1008.99 1246.34 1008.99 S 1304.68 1070.15 1358.54 1070.15 S 1416.17 1023.74 1470.73 1023.74 S 1528.13 1083.55 1582.93 1083.55 S 1640.24 1072.68 1695.12 1072.68 S 1752.5 1063.81 1807.32 1063.81 S 1865.47 1010.14 1919.51 1010.14 S 1977.39 1072.01 2031.71 1072.01 S 2089.3 1026.61 2143.9 1026.61 S 2200.33 1071.32 2256.1 1071.32 S 2314.41 1017.26 2368.29 1017.26 S 2426.34 1073.66 2480.49 1073.66 S 2538.44 1009.44 2592.68 1009.44 S 2649.9 1055 2704.88 1055 L 2660 1283 L -100 1283 Z" fill="#7cd3d6" stroke-width="0" transform="matrix(1,0,0,1,3.5863142013549805,0)" style="transform:matrix(1, 0, 0, 1, 3.58631, 0);animation-play-state:paused" ></path>
<path d="M -100 1043.86 C -40.12 1062.12 -41.39 1096.52 15.97 1096.52 S 75.95 1033.55 131.93 1033.55 S 191.26 1096.42 247.9 1096.42 S 305.91 1063.84 363.87 1063.84 S 422.5 1112.2 479.83 1112.2 S 540.79 1063.6 595.8 1063.6 S 655.93 1106.26 711.76 1106.26 S 770.21 1114.62 827.73 1114.62 S 888.75 1121.12 943.7 1121.12 S 1004.79 1046.13 1059.66 1046.13 S 1120.29 1101.49 1175.63 1101.49 S 1235.33 1055.64 1291.6 1055.64 S 1352.46 1103.27 1407.56 1103.27 S 1468.32 1058.77 1523.53 1058.77 S 1583.35 1099.95 1639.5 1099.95 S 1697.56 1051.24 1755.46 1051.24 S 1816.12 1099.67 1871.43 1099.67 S 1930.53 1061.59 1987.39 1061.59 S 2045.43 1044.14 2103.36 1044.14 S 2164.54 1052.19 2219.33 1052.19 S 2278.92 1115.94 2335.29 1115.94 S 2394.59 1046.64 2451.26 1046.64 S 2509.9 1113.72 2567.23 1113.72 S 2627.3 1060.94 2683.19 1060.94 L 2660 1283 L -100 1283 Z" fill="#86dcdd" stroke-width="0" transform="matrix(1,0,0,1,1.1340198516845703,0)" style="transform:matrix(1, 0, 0, 1, 1.13402, 0);animation-play-state:paused" ></path></g></svg>